<svg xmlns="http://www.w3.org/2000/svg" xmlns:xlink="http://www.w3.org/1999/xlink" width="900" height="270" viewBox="0 0 1000 300">
  <defs>
    <style>
      .cls-1 {
        fill: #fefeff;
        fill-rule: evenodd;
        filter: url(#filter);
      }
    </style>
    <clipPath id="clip-path">
      <rect x="-0.5" y="-3.5" width="1000" height="300"/>
    </clipPath>
    <filter id="filter" x="4" y="7" width="986" height="300" filterUnits="userSpaceOnUse">
      <feGaussianBlur result="blur" stdDeviation="4" in="SourceAlpha"/>
      <feComposite result="composite"/>
      <feComposite result="composite-2"/>
      <feComposite result="composite-3"/>
      <feFlood result="flood" flood-color="#fff" flood-opacity="0.15"/>
      <feComposite result="composite-4" operator="in" in2="composite-3"/>
      <feBlend result="blend" in2="SourceGraphic"/>
      <feBlend result="blend-2" in="SourceGraphic"/>
    </filter>
  </defs>
  <g clip-path="url(#clip-path)">
    <path id="Logo_копия" data-name="Logo копия" class="cls-1" d="M67.829,24.726a3.5,3.5,0,0,0-2.822,1.743,9.851,9.851,0,0,1-2.034,2.573l-1.951-3.611a10.7,10.7,0,0,0-1.287.892,1.028,1.028,0,0,1-1.577-.228,22.363,22.363,0,0,0-.747,11.683,34.516,34.516,0,0,1,.457,11.6l-1.826,1.411q-3.155.706-6.5,1.349a36.46,36.46,0,0,1-6.412.685L42.677,42.407a9.665,9.665,0,0,1,.042-7.3q1.452-3.984-3.03-5.852a8.9,8.9,0,0,0-5.126,1.743,9.184,9.184,0,0,1-4.96,1.826A39.847,39.847,0,0,0,28.068,44.4q0.041,6.226-.457,12.119A7.938,7.938,0,0,1,21.884,58.7a6.589,6.589,0,0,0-5.6,3.051q-1.494,1.992.581,2.947a2.216,2.216,0,0,1,1.328,3.071,6,6,0,0,0,4.254.332,18.579,18.579,0,0,1,4.213-.747,34.253,34.253,0,0,1,.768,10.065,31.648,31.648,0,0,0,.892,10.065,16.369,16.369,0,0,0,1.805,8.57,16.742,16.742,0,0,1,1.805,8.737,4.156,4.156,0,0,1,2.179-1.245q1.432-.373.726-1.992a2.609,2.609,0,0,1,1.39-1.723A11.855,11.855,0,0,1,38.4,99.06a34.522,34.522,0,0,1-.373-5.126,7.628,7.628,0,0,1,1.619-4.752,2.942,2.942,0,0,0,1.826-2.615q0.249-1.992.415-3.818a2.275,2.275,0,0,1-1.121-.664,0.921,0.921,0,0,1-.041-1.287q-0.084-.456,1.37-0.457l0.415-15.813a10.783,10.783,0,0,1,7.139-3.113,23.375,23.375,0,0,0,8.093-2.034,1.107,1.107,0,0,1,.83,1.349,1.63,1.63,0,0,0,.249,1.515,99.441,99.441,0,0,0,1.141,14.008q1.058,6.87,2.3,13.676a2.879,2.879,0,0,1,1.868.6,1.133,1.133,0,0,0,1.7-.353,11.089,11.089,0,0,0,2.553-6.641q0.228-3.86.685-7.1L68.2,75.361a33.359,33.359,0,0,0,.975-8.716q-0.062-4.648.187-9.172a7.04,7.04,0,0,1,1.951-3.3,2.509,2.509,0,0,0,.291-3.466q-1.453,1.245-1.992-.5L70.651,26.8a3.075,3.075,0,0,0-2.822-2.075h0Zm30.6,1.577q-1.7-3.444-3.362-1.224T91.16,26.3q-3.03-3.362-5.644-.457A8.412,8.412,0,0,1,79.83,28.96a91.655,91.655,0,0,0-1.224,24.591q1.058,12.14,2.179,24.093,0.581,1.743,1.121,3.528a16.3,16.3,0,0,1,.664,3.611q2.822-.581,2.718,1.951A5.018,5.018,0,0,0,86.6,90.676l-1.121.83a0.961,0.961,0,0,0,.041.83,1.477,1.477,0,0,1,.851.083,0.664,0.664,0,0,0,.768-0.207q1.245-.912,1.909.706,4.233-.165,3.756-3.984t1.515-5.769L97.1,35.144Zm20.967,2.386a5.159,5.159,0,0,0-.954-4.794q-3.2-1.868-4.151.456a5.96,5.96,0,0,1-2.614,3.2,4.424,4.424,0,0,0-3.756.394,5.325,5.325,0,0,0-2.179,2.428,42.313,42.313,0,0,0-1.059,16.851,132.229,132.229,0,0,1,1.308,16.726,60.055,60.055,0,0,0,2.054,16.519,109.669,109.669,0,0,0,5.541,15.481q1.37-.913.6-2.054a1.286,1.286,0,0,1,.352-1.971q2.823-.249,2.221,1.577t0.519,2.615a6.966,6.966,0,0,0,1-3.092q0.124-1.639,2.864-2.511,9.337-2.9,18.593-6.018A179.042,179.042,0,0,1,158.7,79.262a16.773,16.773,0,0,0,3.341-1.038,9.963,9.963,0,0,1,3.465-.747,4.636,4.636,0,0,1,2.221-.6q1.473-.1.726-1.515a3.032,3.032,0,0,0-3.424-.768,12.078,12.078,0,0,1-3.8.685,11.724,11.724,0,0,0-4.731.291,6.923,6.923,0,0,1-4.109,0,23.012,23.012,0,0,1,3.258-1.888,10.583,10.583,0,0,1,4.047-1.017q0.912-.373,2.262-0.872a1.171,1.171,0,0,0,.726-1.826,3.761,3.761,0,0,0-3.943-.332,7.7,7.7,0,0,1-4.441.456q-8.217,1.329-16.145,3.175t-16.145,3.216l-1.619-1.2a191.461,191.461,0,0,0-.975-21.063,105.813,105.813,0,0,1-.1-20.607A8.764,8.764,0,0,1,119.391,28.69Zm-6.37,31.377q0.186,8.239.6,16.456a16.641,16.641,0,0,1-1.909-7.823q-0.042-4.337.083-8.322a42.689,42.689,0,0,0-.394-8.736,41.113,41.113,0,0,1-.353-8.778l0.913,0.913Q112.834,51.829,113.021,60.067ZM207.907,18.75a2.2,2.2,0,0,0-1.889.124q-1.2.5-2.573,1.162a2.1,2.1,0,0,1-2.2.083q-3.362-.373-3.673.664a4.493,4.493,0,0,0,.229,2.656,22.094,22.094,0,0,1,.83,3.383q0.29,1.765-1.868,2.8a21.641,21.641,0,0,0-4.15,7.554,86.321,86.321,0,0,1-3.279,8.508,21.576,21.576,0,0,1-4.794,6.89q-2.967,2.823-8.57,2.656a10.019,10.019,0,0,0-2.864,1.722,5.163,5.163,0,0,0-1.868,2.76,2.5,2.5,0,0,0,1.847,2.449,5.124,5.124,0,0,0,3.217.041,3.815,3.815,0,0,0,1.079,2.636q1.078,1.183,2.033,2.386a4.143,4.143,0,0,1-.02,3.175q-0.645,1.556-1.183,3.092a21.656,21.656,0,0,1-1.515,9.152,22.167,22.167,0,0,0-1.6,8.986,29.922,29.922,0,0,1,1.743-4.15,16.666,16.666,0,0,0,1.494-4.316,1.034,1.034,0,0,1-.913-0.457,1.11,1.11,0,0,1,.249-0.955,1.357,1.357,0,0,1,1.121.457,53.036,53.036,0,0,0,2.843-5.935,29.036,29.036,0,0,1,3.175-5.811l0.5,0.623q-0.747,2.408-1.287,4.9a20.024,20.024,0,0,1-1.66,4.731,3.415,3.415,0,0,0-.664,4.254,3.542,3.542,0,0,1-.664,4.337,4.4,4.4,0,0,1,1.7.29l4.15-10.293a56.131,56.131,0,0,0,3.154-8.218,17.209,17.209,0,0,1,4.234-7.3,40.121,40.121,0,0,1,7.7-1.681q4-.477,8.114-1.1l1.66,1.453a24.672,24.672,0,0,0,1.722,5.894,31.546,31.546,0,0,1,1.889,5.894,18.8,18.8,0,0,1,4.648,8.591l1.038-1.079a6.3,6.3,0,0,0-.976-3.777,4.637,4.637,0,0,1-.228-4.192q5.438-1.659,3.154-5.935A11.15,11.15,0,0,1,221.541,60a2.383,2.383,0,0,1,2.635-1.432,8.3,8.3,0,0,0,3.466-.27,12.469,12.469,0,0,1,5.375-.685,8.76,8.76,0,0,0,5.333-1.307q0.083-1.41.1-2.926A2.619,2.619,0,0,0,236.98,51a15.149,15.149,0,0,1-2.262.353,5.2,5.2,0,0,0-2.262.726,10.742,10.742,0,0,0-6.931-2.034,12.876,12.876,0,0,1-7.055-1.619q-2.325-6.765-4.172-13.675a40.053,40.053,0,0,0-6.2-13.011Q208.592,19.123,207.907,18.75ZM202.864,49.96a5.953,5.953,0,0,1-3.9-.913,16.2,16.2,0,0,0,1.743-5.147,10.668,10.668,0,0,1,2.2-4.98,10.6,10.6,0,0,1,2.469,4.669q0.726,2.8,1.266,5.416A11.633,11.633,0,0,1,202.864,49.96Zm-20.959,42.4q0.581-1.307-.955-1.722a42.294,42.294,0,0,0-2.1,5.79,30.481,30.481,0,0,0-1.058,6.495l0.622-.7A4.472,4.472,0,0,1,179,100.8a0.9,0.9,0,0,0-.415-1.287A2.164,2.164,0,0,0,180,97.109a2.166,2.166,0,0,1,1.453-2.407A4.5,4.5,0,0,1,181.905,92.357Zm88.517-62.5A69.259,69.259,0,0,0,244.3,22.568a29.053,29.053,0,0,1-5.894.353q-3.278-.1-4.026,3.258a6.723,6.723,0,0,0,7.077,1.805q4.087-1.183,6.5,2.926a75.778,75.778,0,0,0,.5,18.116,131.736,131.736,0,0,1,1.453,17.95,29.191,29.191,0,0,0,.27,9.11,44.289,44.289,0,0,1,.726,9.276,10.267,10.267,0,0,1,.851,4.586,6.421,6.421,0,0,0,1.349,4.3q2.655-.706,3.03,1.245a5.472,5.472,0,0,0,1.328,2.905,4.022,4.022,0,0,0,.581-2.76,1.7,1.7,0,0,1,1.411-2.054L259.817,94l1.868-15.481a1.813,1.813,0,0,0,.477-2.054q-0.352-1.432,1.681-.685a195.721,195.721,0,0,0,15.709,13.613q8.364,6.515,15.959,13.364l1.784,0.208q2.616,2.033,5.209,4.275a29.8,29.8,0,0,0,5.582,3.818q-3.984-4.856-7.263-9.691t-7.18-10.023a0.991,0.991,0,0,1,1.1-.747q0.851,0.042,1.6.083a35.394,35.394,0,0,0-8.488-11.912,108.8,108.8,0,0,1-10.23-11.04,83.3,83.3,0,0,1,11.123-7.782q6.39-3.8,6.308-10.646a3.822,3.822,0,0,0-2.407-2.1,5.888,5.888,0,0,0-3.2-.145A48.036,48.036,0,0,0,270.422,29.852Zm3.9,26.127a35.2,35.2,0,0,1-8.986,4.192,5.435,5.435,0,0,1-.332-5.5,7.857,7.857,0,0,0,.457-5.748,18.556,18.556,0,0,0,.187-6.724,8.508,8.508,0,0,1,1.183-6.1,28.724,28.724,0,0,1,7.844,4.814,17.917,17.917,0,0,1,5.271,7.429A11.433,11.433,0,0,1,274.323,55.979ZM320.3,26.3q-1.7-3.444-3.362-1.224t-3.9,1.224q-3.03-3.362-5.645-.457A8.413,8.413,0,0,1,301.7,28.96a91.639,91.639,0,0,0-1.224,24.591q1.058,12.14,2.179,24.093,0.581,1.743,1.12,3.528a16.251,16.251,0,0,1,.664,3.611q2.823-.581,2.719,1.951a5.015,5.015,0,0,0,1.307,3.943l-1.12.83a0.959,0.959,0,0,0,.041.83,1.477,1.477,0,0,1,.851.083,0.664,0.664,0,0,0,.768-0.207q1.245-.912,1.909.706,4.233-.165,3.756-3.984t1.515-5.769l2.781-48.02Zm49.73,3.964a27.762,27.762,0,0,0-14.817-4.794,9.754,9.754,0,0,0-6.89,2.075,13.343,13.343,0,0,1-6.516,2.822q-2.449.789-2.573,2.781a24.522,24.522,0,0,0-4.565,5.478,65.349,65.349,0,0,0-3.2,6.018,25.8,25.8,0,0,0-1.64,4.3,10.738,10.738,0,0,1-2.262,4.13q1,0.955-.145,1.494a2.208,2.208,0,0,0-1.349,1.37,33,33,0,0,0,.789,13.364,71.774,71.774,0,0,0,4.607,12.161Q339.314,92.419,354.753,93A41.635,41.635,0,0,0,368.3,88.289a28.531,28.531,0,0,0,10.4-9.525,35.886,35.886,0,0,0,6.516-18.7,31.055,31.055,0,0,0-4.607-19.154A35.085,35.085,0,0,0,370.027,30.267Zm-2.034,6.578a31.129,31.129,0,0,0-6.661-1.743,25.254,25.254,0,0,0-7.16-.208l-0.373-.041a2.8,2.8,0,0,1,2.283-1.785,11.225,11.225,0,0,0,3.195-1.162,6.332,6.332,0,0,1,5,1.017,16.852,16.852,0,0,1,3.756,3.466Zm-27.828,2.1q-1.641,1.681-3.258,3.424a19.117,19.117,0,0,1,2.282-4.026,8.855,8.855,0,0,1,3.86-2.988A23.58,23.58,0,0,1,340.165,38.941Zm35.818,28.845a21.2,21.2,0,0,1-8.944,9.11,11.786,11.786,0,0,1-7.077.789,27.966,27.966,0,0,1-6.827-1.951,25.514,25.514,0,0,1-8.882-10.314,16.179,16.179,0,0,1-.5-12.845,17.36,17.36,0,0,1,4.648-7.242,17.132,17.132,0,0,1,7.845-4.42,27.544,27.544,0,0,1,13.364,4.441,20.437,20.437,0,0,1,8.467,10.127A20.5,20.5,0,0,1,375.983,67.786Zm-35.548,3.092a28.639,28.639,0,0,0,3.922,4.358,19.136,19.136,0,0,1,3.59,4.275q-5.853-.207-8.093-4.648t-4.4-8.052a18.621,18.621,0,0,1-.913-7.263,11.951,11.951,0,0,1,2.324-6.89,6.289,6.289,0,0,1,.353,3.86,10.883,10.883,0,0,0-.062,4.192,31.619,31.619,0,0,0,3.279,10.168h0ZM348.466,86.8a45.711,45.711,0,0,0,5.084.768,9.88,9.88,0,0,0,2.49.1,6.948,6.948,0,0,1,2.366.187,14.2,14.2,0,0,1-11,.291,36.266,36.266,0,0,1-9.5-5.312l-1.079-2.49a32.546,32.546,0,0,0,7.1,4.69A14.585,14.585,0,0,0,348.466,86.8Zm83.2-64.725q-1.245-1.992-3.071-1.536a6.275,6.275,0,0,0-3.113,1.826,4.277,4.277,0,0,1,.27,2.386,1.661,1.661,0,0,0,1.432,1.889,31.76,31.76,0,0,1,2.47,12.264q0.019,6.412-.519,12.6-1.245,4.566-2.241,9.152a21.4,21.4,0,0,1-3.777,8.322q-4.566-1.245-9.339-2.241a10.146,10.146,0,0,1-7.138-5.354,80.613,80.613,0,0,1-2.408-14.734q-0.54-7.6-1.369-15.149a3.2,3.2,0,0,0-3.57-.664,4.469,4.469,0,0,1-3.984-.373,3.154,3.154,0,0,0-2.822,1.868A27.571,27.571,0,0,0,391.2,35.6a148.664,148.664,0,0,0-.726,26.915,43.2,43.2,0,0,0,9.193,24.425q7.263,6.516,17.888,5.354a40.958,40.958,0,0,0,13.53-6.641A21.214,21.214,0,0,0,439.6,73.369a29.613,29.613,0,0,0,.1-5.375,4.736,4.736,0,0,0-3.05-4.254,98.814,98.814,0,0,0,3.092-20.088,47.448,47.448,0,0,0-2.968-20,9.339,9.339,0,0,0-1.265-2.137A2.045,2.045,0,0,0,433,20.866ZM409.007,76.481a12.219,12.219,0,0,1,2.242,2.366,11.049,11.049,0,0,1-4.69-1.1,8.369,8.369,0,0,1-3.694-3.258,15.456,15.456,0,0,1-2.989-9.421,7.073,7.073,0,0,1,3.653,4.192,11.458,11.458,0,0,0,2.988,4.773A18.7,18.7,0,0,0,409.007,76.481ZM463.282,25.12a97.935,97.935,0,0,0-11.849,4.462,9.805,9.805,0,0,0-5.541,6.6,62.342,62.342,0,0,0-1.474,8.508,22.615,22.615,0,0,0,10.833,13.3q8.093,4.586,15.522,8.861a3.892,3.892,0,0,1,1.536,3.071,30.348,30.348,0,0,1-.083,3.279,12.18,12.18,0,0,1-6.62,6.163q-4.627,1.93-8.944,3.341a29.571,29.571,0,0,1-4.96,0,7.112,7.112,0,0,1-4.3-2.034q-0.747-.747-1.287-0.166a1.725,1.725,0,0,0-.539,1.162,2.2,2.2,0,0,0,1.743,1.889,4.511,4.511,0,0,1,2.365,1.266l0.582-.747a1.15,1.15,0,0,1,1.535.373,10.642,10.642,0,0,1,.955,1.536,3.263,3.263,0,0,0,2.76.726,3.266,3.266,0,0,1,2.76.726,6.371,6.371,0,0,1-5.271,2.137q-3.4-.062-6.267-0.27l-0.042.623a18.255,18.255,0,0,0,9.546,2.366,47.648,47.648,0,0,0,9.961-1.162,28.3,28.3,0,0,0,10.667-5.354,15.256,15.256,0,0,0,6.142-9.5q3.9-6.848-1.909-12.223t-9.92-9.857a21.077,21.077,0,0,0-8.861-5.167,17.754,17.754,0,0,1-8.4-5.209q-0.042-5.146,5.146-6.392a59.422,59.422,0,0,0,8.965-2.822,10.046,10.046,0,0,1,6.579-.166q4,1,4.129-2.864A9.8,9.8,0,0,0,469.86,29.4q-5.188,1.058-9.421,1.847-1.785.872-3.777,1.805a9.235,9.235,0,0,1-3.943.934l0.747-.623a14.68,14.68,0,0,1,10.356-5.52,64.513,64.513,0,0,0,11.89-2.241A18.373,18.373,0,0,0,463.282,25.12ZM30.512,117.015l5.593-.935q0.524,0,.673-0.007a0.308,0.308,0,0,0,.191-0.05,0.879,0.879,0,0,0,.106-0.141,1.171,1.171,0,0,1,.418-0.269,1.686,1.686,0,0,0,.694.184,2.516,2.516,0,0,0,.7-0.071,3.9,3.9,0,0,0,.7-0.248q0.354-.162.694-0.347v-0.467l-0.453-.481a6.321,6.321,0,0,1-.984-0.071c-0.3-.047-0.576-0.1-0.835-0.163s-0.508-.116-0.743-0.163a3.619,3.619,0,0,0-.708-0.071H34.717a13.9,13.9,0,0,1-1.4.269q-0.708.1-1.451,0.142t-1.543.05q-0.8.006-1.664,0.007-0.467,0-1.027.007t-1.126.028q-0.567.021-1.1,0.078a6.575,6.575,0,0,0-.942.163,2.2,2.2,0,0,0-.658.269,0.474,0.474,0,0,0-.248.4v0.949a0.391,0.391,0,0,0,.29.411,1.134,1.134,0,0,0,.3.049c0.108,0,.22.007,0.333,0.007-0.113.114-.125,0.2-0.035,0.269a0.9,0.9,0,0,0,.4.142,4.238,4.238,0,0,0,.566.05c0.2,0,.361.007,0.474,0.007V117.5q0,0.708-.071,1.416t-0.163,1.416q-0.092.708-.163,1.423t-0.071,1.423l-0.262.284a0.288,0.288,0,0,0-.092.141c0,0.028.03,0.045,0.092,0.05s0.149,0.007.262,0.007v9.926a1.334,1.334,0,0,1,.262.418,1.16,1.16,0,0,1,.092.417,0.262,0.262,0,0,1-.092.241c-0.061.038-.149,0-0.262-0.127-0.113,0-.227,0-0.34.007a1.2,1.2,0,0,0-.3.049,0.428,0.428,0,0,0-.212.142,0.45,0.45,0,0,0-.078.283,1.245,1.245,0,0,0,1.4,1.416,6.84,6.84,0,0,1,.616.347c0.184,0.118.366,0.239,0.545,0.361s0.361,0.243.545,0.361a6.617,6.617,0,0,0,.616.347q1.048,0,2.089-.056a8.2,8.2,0,0,0,2.117-.411,6.731,6.731,0,0,0,1.02-.078q0.51-.078.991-0.163c0.321-.056.623-0.111,0.906-0.163A4.424,4.424,0,0,1,36.1,136.9a0.6,0.6,0,0,1,.34-0.192,0.953,0.953,0,0,1,.347.022,3.184,3.184,0,0,1,.354.106,1.032,1.032,0,0,0,.347.064,1.053,1.053,0,0,0,.7-0.291q0.333-.289.687-0.658a1.077,1.077,0,0,1,.3-0.7q0.3-.347.651-0.715c0.113-.236.224-0.475,0.333-0.715a7.2,7.2,0,0,0,.29-0.758,6.283,6.283,0,0,0,.205-0.842,5.775,5.775,0,0,0,.078-0.985,4.781,4.781,0,0,1-.276-0.708c-0.071-.235-0.149-0.474-0.234-0.715a4.629,4.629,0,0,0-.326-0.715,3.883,3.883,0,0,0-.538-0.722,7.03,7.03,0,0,0-.786-0.991q-0.432-.453-0.913-0.892t-0.991-.892q-0.51-.453-1.034-0.992-0.524-.353-1.048-0.7a8.721,8.721,0,0,0-1.09-.616,6.647,6.647,0,0,0-1.189-.432,5.23,5.23,0,0,0-1.331-.163c-0.113,0-.2,0-0.269-0.007a0.173,0.173,0,0,1-.191-0.191c0-.066-0.007-0.156-0.007-0.269v-5.211Zm3.972,12.369q0.347,0.659.687,1.366a3.6,3.6,0,0,1,.255.7,1.756,1.756,0,0,1,.042.658,1.241,1.241,0,0,1-.227.567,1.411,1.411,0,0,1-.524.425,2.491,2.491,0,0,1-.51.708,4.311,4.311,0,0,1-.772.608,4.09,4.09,0,0,1-.949.432,3.434,3.434,0,0,1-1.041.163V130.75a8.055,8.055,0,0,1-.411-2.131q-0.057-1.069-.057-2.131,0.694,0.339,1.4.757a6.909,6.909,0,0,1,1.4,1.126A4.224,4.224,0,0,1,34.484,129.384ZM60.568,116.6a9.473,9.473,0,0,0-5.055-1.636,3.333,3.333,0,0,0-2.351.708,4.55,4.55,0,0,1-2.223.963,1.072,1.072,0,0,0-.878.949A8.376,8.376,0,0,0,48.5,119.45a22.387,22.387,0,0,0-1.09,2.053,8.813,8.813,0,0,0-.559,1.466,3.664,3.664,0,0,1-.772,1.409q0.34,0.325-.05.51a0.75,0.75,0,0,0-.46.467,11.26,11.26,0,0,0,.269,4.56,24.48,24.48,0,0,0,1.572,4.148A9.616,9.616,0,0,0,55.357,138a14.225,14.225,0,0,0,4.623-1.607,9.741,9.741,0,0,0,3.547-3.25,12.244,12.244,0,0,0,2.223-6.379,10.6,10.6,0,0,0-1.572-6.535A11.969,11.969,0,0,0,60.568,116.6Zm-0.694,2.244a10.583,10.583,0,0,0-2.273-.594,8.61,8.61,0,0,0-2.443-.071l-0.128-.014a0.955,0.955,0,0,1,.779-0.609,3.814,3.814,0,0,0,1.09-.4,2.162,2.162,0,0,1,1.706.347,5.728,5.728,0,0,1,1.281,1.183Zm-9.494.715q-0.56.574-1.111,1.169a6.5,6.5,0,0,1,.779-1.374,3.015,3.015,0,0,1,1.317-1.019A8.048,8.048,0,0,1,50.38,119.556ZM62.6,129.4a7.236,7.236,0,0,1-3.052,3.108,4.025,4.025,0,0,1-2.414.269,9.531,9.531,0,0,1-2.329-.666,8.7,8.7,0,0,1-3.03-3.518,5.521,5.521,0,0,1-.17-4.383,5.926,5.926,0,0,1,1.586-2.471,5.851,5.851,0,0,1,2.676-1.508,9.4,9.4,0,0,1,4.56,1.515,6.97,6.97,0,0,1,2.889,3.455A7,7,0,0,1,62.6,129.4Zm-12.128,1.055a9.768,9.768,0,0,0,1.338,1.486,6.544,6.544,0,0,1,1.225,1.459,2.943,2.943,0,0,1-2.761-1.586q-0.765-1.515-1.5-2.747a6.354,6.354,0,0,1-.312-2.478,4.079,4.079,0,0,1,.793-2.351,2.15,2.15,0,0,1,.12,1.317,3.715,3.715,0,0,0-.021,1.43,10.788,10.788,0,0,0,1.119,3.47h0Zm2.74,5.43a15.726,15.726,0,0,0,1.735.262,3.373,3.373,0,0,0,.85.035,2.378,2.378,0,0,1,.807.064,4.846,4.846,0,0,1-3.752.1,12.385,12.385,0,0,1-3.243-1.812l-0.368-.85a11.093,11.093,0,0,0,2.421,1.6A4.984,4.984,0,0,0,53.212,135.883Zm33.122-.4a0.171,0.171,0,0,1,.1-0.135,0.684,0.684,0,0,1,.262-0.05c0.118,0,.29-0.007.517-0.007a4.017,4.017,0,0,0-.057-0.672,1.225,1.225,0,0,0-.4-0.659,4.017,4.017,0,0,0-.057-0.672,1.321,1.321,0,0,0-.382-0.673q-0.34-.992-0.673-2.067t-0.673-2.16q-0.34-1.083-.673-2.159t-0.673-2.082q-1.006-2.023-1.947-4.021a35.123,35.123,0,0,1-1.607-4.022l-0.453-1.784a0.423,0.423,0,0,0-.262.071,1.74,1.74,0,0,0-.177.156,1.6,1.6,0,0,1-.184.156,0.456,0.456,0,0,1-.269.07H77.824l-0.439-.453a3.246,3.246,0,0,0-1,.729,1.572,1.572,0,0,0-.333,1.055,0.608,0.608,0,0,1,.184.4,1.29,1.29,0,0,1-.071.488,2.329,2.329,0,0,1-.241.5,2.383,2.383,0,0,1-.326.418c0,0.1,0,.184-0.007.241a0.2,0.2,0,0,1-.05.127,0.2,0.2,0,0,1-.127.05c-0.057,0-.142.007-0.255,0.007a0.455,0.455,0,0,1-.071.269,1.5,1.5,0,0,1-.156.184,1.765,1.765,0,0,0-.156.177,0.421,0.421,0,0,0-.071.262q-0.68,2.025-1.338,4.014t-1.338,4.015q-0.68,2.025-1.338,4.014t-1.338,4.014a0.348,0.348,0,0,0,.276.4,3.056,3.056,0,0,0,.616.057,0.37,0.37,0,0,1,.255.077,0.478,0.478,0,0,1,.128.206,1.045,1.045,0,0,1,.049.283c0,0.1.007,0.212,0.007,0.326-0.113,0-.2,0-0.255.007a0.2,0.2,0,0,0-.127.049,0.211,0.211,0,0,0-.05.135c0,0.061-.007.148-0.007,0.262v0.892a0.429,0.429,0,0,1,.212.056,0.461,0.461,0,0,1,.156.135,0.4,0.4,0,0,1,.071.248c0.113,0,.2,0,0.269-0.007a0.5,0.5,0,0,0,.184-0.05,0.793,0.793,0,0,0,.177-0.127q0.092-.086.262-0.255h0.906q0.34-.835.666-1.607t0.616-1.523q0.29-.75.531-1.522a16.3,16.3,0,0,0,.411-1.607q0.17-.666.411-1.409t0.489-1.543q0.247-.8.481-1.629t0.4-1.664a0.348,0.348,0,0,0,.4-0.276,3.083,3.083,0,0,0,.057-0.616c0-.113,0-0.221.007-0.325a0.953,0.953,0,0,1,.05-0.276,0.48,0.48,0,0,1,.127-0.2,0.371,0.371,0,0,1,.255-0.078l0.538,0.425q0.226,0.666.418,1.168t0.368,0.928q0.177,0.424.347,0.8t0.439,0.92q0.269,0.546.637,1.4a2.209,2.209,0,0,0,.51.892,12.312,12.312,0,0,1,.538,1.409q0.17,0.573.375,1.282t0.46,1.387a13.037,13.037,0,0,0,.595,1.346,0.456,0.456,0,0,1,.226.056,0.461,0.461,0,0,1,.156.135,0.421,0.421,0,0,1,.071.262h0.892v-0.453l0.566,0.538,0.453,0.439h0.892a0.419,0.419,0,0,1,.071-0.262,1.661,1.661,0,0,1,.156-0.177,1.5,1.5,0,0,0,.156-0.184,0.455,0.455,0,0,0,.071-0.269A1.818,1.818,0,0,1,86.334,135.487ZM103.2,136.8a0.96,0.96,0,0,1,.269.05,0.429,0.429,0,0,1,.191.127,0.368,0.368,0,0,1,.071.241c0.208-.1.392-0.186,0.552-0.248s0.3-.118.432-0.17a2.909,2.909,0,0,0,.354-0.169,1.507,1.507,0,0,0,.319-0.248,0.983,0.983,0,0,1,.255-0.623,5.765,5.765,0,0,1,.58-0.609,3.622,3.622,0,0,0,.347-1.31q0.049-.687.05-1.607a3.746,3.746,0,0,0-.071-0.687,7.8,7.8,0,0,0-.184-0.758c-0.076-.254-0.163-0.507-0.262-0.757s-0.2-.479-0.3-0.687a6.379,6.379,0,0,1-.863-0.687q-0.4-.375-0.786-0.771t-0.793-.772a6.965,6.965,0,0,0-.871-0.687,5.054,5.054,0,0,0-2.124-1.3,8.364,8.364,0,0,0-2.436-.361,1.3,1.3,0,0,1-.241-0.318,1.259,1.259,0,0,1-.12-0.354,2.8,2.8,0,0,1-.043-0.425c0-.156-0.007-0.337-0.007-0.545v-1.26q-0.326-.624-0.581-1.239a3.22,3.22,0,0,1-.255-1.239q0-.638-0.05-1.254a3.535,3.535,0,0,0-.347-1.239q-0.326-.31-0.5-0.495a3.033,3.033,0,0,1-.5-0.673q-0.1-.177-0.241-0.488v-2.082q-0.312.156-.474,0.248a0.524,0.524,0,0,0-.205.17,0.154,0.154,0,0,0,.021.17A2.027,2.027,0,0,0,94.6,114c0,0.1,0,.186-0.007.247a0.439,0.439,0,0,1-.043.163,0.722,0.722,0,0,1-.12.163l-0.227.248q-0.156.623-.248,1.246t-0.17,1.246q-0.078.624-.17,1.246T93.366,119.8v5.381a0.338,0.338,0,0,0-.234.071,0.637,0.637,0,0,0-.12.141,0.424,0.424,0,0,0-.057.213l0.411,0.411a30.346,30.346,0,0,0-.311,4.3,24.5,24.5,0,0,0,.311,4,0.847,0.847,0,0,0,.057.3c0.038,0.1.071,0.186,0.1,0.262a0.314,0.314,0,0,1,.021.191,0.158,0.158,0,0,1-.177.078,0.749,0.749,0,0,0-1.246,0,1.45,1.45,0,0,0,.3.977,2.916,2.916,0,0,0,.942.665,3.848,3.848,0,0,0,.616.248c0.2,0.062.4,0.118,0.58,0.17a4.414,4.414,0,0,1,.5.17,1.167,1.167,0,0,1,.375.248h3.724a7.07,7.07,0,0,0,1.869-.255q0.936-.255,1.87-0.581C103,136.8,103.1,136.8,103.2,136.8Zm-0.956-4.418a1.286,1.286,0,0,1-.063.482,2.442,2.442,0,0,1-.227.481c-0.1.166-.2,0.352-0.3,0.56a5.7,5.7,0,0,1-1.282.977,9.138,9.138,0,0,1-1.607.665q0-.935-0.05-1.862a6.74,6.74,0,0,0-.375-1.862V128.1q0.623,0.312,1.2.616a3.215,3.215,0,0,1,.87.63,7.219,7.219,0,0,1,.553.616c0.16,0.2.306,0.409,0.439,0.616s0.252,0.416.361,0.623,0.214,0.416.318,0.623A1.455,1.455,0,0,1,102.244,132.385Zm31.2-1.748q-0.015-.638-0.015-1.36a5.594,5.594,0,0,1,.17-1.387,4.5,4.5,0,0,0,.128-1.388q0.113-.638.156-1.062a5.132,5.132,0,0,0,.028-0.722,2.733,2.733,0,0,0-.071-0.524q-0.057-.227-0.142-0.489c-0.056-.174-0.12-0.38-0.191-0.616a8.477,8.477,0,0,1-.2-0.892v-6.018c0-.1,0-0.231-0.007-0.382a4.054,4.054,0,0,0-.043-0.467,2.2,2.2,0,0,0-.12-0.468,1.207,1.207,0,0,0-.241-0.4,0.779,0.779,0,0,1-.2-0.234c-0.019-.052-0.028-0.064-0.028-0.035s-0.007.1-.021,0.212a1.672,1.672,0,0,1-.192.5,1.968,1.968,0,0,0-.247.325c-0.062.1-.121,0.2-0.177,0.277a0.893,0.893,0,0,1-.177.191,0.425,0.425,0,0,1-.262.071l-0.68-.029a1.222,1.222,0,0,0-.234.312,2.731,2.731,0,0,0-.12.269,0.719,0.719,0,0,0-.057.269,7.522,7.522,0,0,0-.5,1.225,5.108,5.108,0,0,0-.206,1.14,6.226,6.226,0,0,0,.036,1.147,2.547,2.547,0,0,1-.227,1.288c-0.076.321-.149,0.619-0.219,0.892a2.537,2.537,0,0,0-.1.68,1.992,1.992,0,0,1-.057.524,5.163,5.163,0,0,0-.106.559q-0.043.3-.078,0.68c-0.024.25-.036,0.555-0.036,0.913l0.043,2.223a1.579,1.579,0,0,0-.191.588,1.993,1.993,0,0,0,.021.5,0.556,0.556,0,0,1-.092.432,0.877,0.877,0,0,0-.135.516q-0.169.312-.262,0.489a2.477,2.477,0,0,1-.177.3c-0.056.081-.113,0.095-0.169,0.043s-0.137-.021-0.241.092l-2.691.325c0-.113.019-0.165,0.057-0.155s0.08-.038.127-0.142,0.093-.207.135-0.311a0.829,0.829,0,0,0,.064-0.312v-5.183a1.829,1.829,0,0,0-.029-0.41c-0.019-.066-0.042-0.092-0.07-0.078a0.3,0.3,0,0,0-.1.12,1.363,1.363,0,0,1-.1.156c-0.028.038-.052,0.045-0.07,0.021a0.566,0.566,0,0,1-.029-0.248v-2.562l-0.028-4.843a1.4,1.4,0,0,1-.241-0.312c-0.056-.1-0.111-0.2-0.163-0.276a0.882,0.882,0,0,0-.17-0.2,0.392,0.392,0,0,0-.262-0.078,0.717,0.717,0,0,0-.325.078,1.054,1.054,0,0,0-.276.2,0.931,0.931,0,0,0-.192.276,0.751,0.751,0,0,0-.07.312,0.415,0.415,0,0,0-.262.071,0.845,0.845,0,0,0-.177.191c-0.057.08-.116,0.17-0.177,0.269a5.433,5.433,0,0,1-.758.715q-0.382,1.614-.665,3.526a5.941,5.941,0,0,0-.114,2.237v3.837a1.766,1.766,0,0,1,.192.73,5.693,5.693,0,0,1-.022.849q-0.042.447-.106,0.921c-0.042.316-.069,0.484-0.078,0.5l-6.414.694a1.25,1.25,0,0,0,.382-0.651,3.617,3.617,0,0,0,.057-0.623,0.324,0.324,0,0,1-.439-0.439v-0.439h0.439l-0.156-3.427q-0.765-9.727-1.147-9.969a0.534,0.534,0,0,0-.482-0.155c-0.066.056-.155,0.137-0.269,0.24a1.211,1.211,0,0,1-.7.376,5.359,5.359,0,0,1-.7.049q-0.327.976-.595,1.94a7.156,7.156,0,0,0-.269,1.94v11.158q0,0.637.007,1.006a4.851,4.851,0,0,0,.049.644,4.735,4.735,0,0,0,.128.573c0.056,0.2.141,0.458,0.255,0.779,0,0.331,0,.611.007,0.843a5.853,5.853,0,0,0,.049.665,6.738,6.738,0,0,0,.128.673c0.056,0.236.137,0.514,0.241,0.835a0.337,0.337,0,0,1,.269-0.382,2.79,2.79,0,0,1,.58-0.057,0.17,0.17,0,0,1,.064-0.177,0.193,0.193,0,0,1,.149.022c0.056,0.037.127,0.089,0.212,0.155a23.235,23.235,0,0,0,7.76,0q0.963-.154,2-0.318t2.082-.326l2.322-.361q1.275-.2,2.237-0.354a2.915,2.915,0,0,1,.269-0.212,2.5,2.5,0,0,1,.262-0.142,0.709,0.709,0,0,1,.3-0.071,3.767,3.767,0,0,0,.651-0.057,1.249,1.249,0,0,0,.652-0.382,5.764,5.764,0,0,0,.821-0.318q0.326-.163.057-0.291a1.857,1.857,0,0,0,.368-0.269,1.224,1.224,0,0,0,.325-0.906,5.77,5.77,0,0,1,.142-1.232A6.912,6.912,0,0,0,133.448,130.637Zm-1.855-9.275v-1.3q0.169,0.651.254,1.161c0.057,0.34.1,0.671,0.128,0.991s0.045,0.652.049,0.992,0.008,0.727.008,1.161a5.812,5.812,0,0,0,.028.658,1.838,1.838,0,0,0,.078.375,1.179,1.179,0,0,0,.106.234,1.18,1.18,0,0,1,.106.241,2.021,2.021,0,0,1,.078.389,6.034,6.034,0,0,1,.028.666,3.478,3.478,0,0,1-.375-1.289q-0.049-.638-0.049-1.274a0.42,0.42,0,0,0-.036-0.241c-0.024-.019-0.049-0.007-0.078.035s-0.063.1-.106,0.185-0.078.146-.106,0.2-0.055.071-.078,0.056a0.38,0.38,0,0,1-.035-0.233v-3Zm24.378-6.174a90.988,90.988,0,0,0-14.1.382,5.817,5.817,0,0,1-2.655.425q-1.621-.056-1.38,1.444,1.841-.211,1.43.9a4.773,4.773,0,0,0-.368,1.862,11.277,11.277,0,0,1-.291,4.566,10.014,10.014,0,0,0-.177,4.553,5.993,5.993,0,0,1,.3.9,0.912,0.912,0,0,0,.637.673,1.347,1.347,0,0,0,.226-0.992,1.066,1.066,0,0,1,.326-0.948,5.092,5.092,0,0,1,.51,1.925,3.54,3.54,0,0,0,.765,1.94,10.223,10.223,0,0,0,3.674,3.158,17.975,17.975,0,0,0,4.907,1.671,5.167,5.167,0,0,1,1.968-.021,1.507,1.507,0,0,0,1.642-.673q-0.508-.693.333-0.849t0.5-.737a7.22,7.22,0,0,1-2.11-.333,15,15,0,0,0-2-.488,9.044,9.044,0,0,1-4.205-3.122,7.127,7.127,0,0,1-1.614-4.595q2.364-.383,4.757-0.581t4.772-.623q0.679-.82-0.4-0.892t-0.56-.991a13.329,13.329,0,0,0-4.311-.482,39.287,39.287,0,0,1-4.355-.014l-0.2-.212a5.505,5.505,0,0,0,.184-2.124,2.1,2.1,0,0,1,.878-1.912l8.723-1.4a2.878,2.878,0,0,0,1.274-.163,8.161,8.161,0,0,1,1.331-.332,7.277,7.277,0,0,1-.049-0.786,0.709,0.709,0,0,1,.488-0.673,2.039,2.039,0,0,0-.849-0.453h0Zm-12.645,16.886a7.83,7.83,0,0,1-.992-2.145l0.085-.623a16.331,16.331,0,0,0,2.7,4.248A3.217,3.217,0,0,1,143.326,132.074Zm42.668-15.208q0.107-.617.163-1.161a1.467,1.467,0,0,0-.141-0.892,1.008,1.008,0,0,0-1.076-.206,1.2,1.2,0,0,1-1.445.432,0.971,0.971,0,0,0-1.3.56,15.483,15.483,0,0,0-.127,5.791,22.025,22.025,0,0,0,1.6,5.466A4.709,4.709,0,0,0,186.341,129a7,7,0,0,0,3.356.262,0.762,0.762,0,0,1,.553.722,12.676,12.676,0,0,0-.461,3.93,19.739,19.739,0,0,1-.219,3.873,0.489,0.489,0,0,1,.418.368,0.364,0.364,0,0,0,.432.283,1.188,1.188,0,0,1,.162-0.432,0.673,0.673,0,0,0,.078-0.474,23.036,23.036,0,0,0,1.784-4.631q0.653-2.434,1.459-4.772a29.22,29.22,0,0,1,2.45-2.032,5.828,5.828,0,0,0,1.968-2.485l-1.1-.127a1.759,1.759,0,0,0-1.033.694,0.6,0.6,0,0,1-1.034,0,30.579,30.579,0,0,1,1.062-4.149,13.618,13.618,0,0,0,.666-4.333,1.133,1.133,0,0,1-.383-0.552,0.465,0.465,0,0,0-.594-0.3,1.457,1.457,0,0,0-1.091,1.232,3.217,3.217,0,0,0-.163.913,0.847,0.847,0,0,1-.375.73,0.547,0.547,0,0,1-.255-0.425,1.51,1.51,0,0,0-.665-2.011,0.6,0.6,0,0,0-.68.262,5.047,5.047,0,0,1-.481.659q-0.228,1.7-.312,3.639a23.385,23.385,0,0,1-.439,3.667l-0.3.439a5.089,5.089,0,0,1-3.356-2.343,13.03,13.03,0,0,1-1.615-3.732A1.305,1.305,0,0,1,185.994,116.866Zm2.174,7.866q1.02,0.694,1.94,1.232a3.074,3.074,0,0,1-2.273-.637,5.252,5.252,0,0,1-1.635-1.9l-0.128-.311h0.312A8.577,8.577,0,0,0,188.168,124.732Zm30.963-9.544a90.988,90.988,0,0,0-14.1.382,5.817,5.817,0,0,1-2.655.425q-1.622-.056-1.38,1.444,1.84-.211,1.43.9a4.773,4.773,0,0,0-.368,1.862,11.277,11.277,0,0,1-.291,4.566,10.014,10.014,0,0,0-.177,4.553,5.993,5.993,0,0,1,.3.9,0.912,0.912,0,0,0,.637.673,1.347,1.347,0,0,0,.226-0.992,1.066,1.066,0,0,1,.326-0.948,5.11,5.11,0,0,1,.51,1.925,3.546,3.546,0,0,0,.764,1.94,10.234,10.234,0,0,0,3.675,3.158,17.975,17.975,0,0,0,4.907,1.671,5.167,5.167,0,0,1,1.968-.021,1.507,1.507,0,0,0,1.642-.673q-0.508-.693.333-0.849t0.5-.737a7.215,7.215,0,0,1-2.11-.333,15,15,0,0,0-2-.488,9.044,9.044,0,0,1-4.205-3.122,7.127,7.127,0,0,1-1.614-4.595q2.364-.383,4.757-0.581t4.772-.623q0.68-.82-0.4-0.892t-0.56-.991a13.329,13.329,0,0,0-4.311-.482,39.287,39.287,0,0,1-4.355-.014l-0.2-.212a5.505,5.505,0,0,0,.184-2.124,2.1,2.1,0,0,1,.878-1.912l8.723-1.4a2.878,2.878,0,0,0,1.274-.163,8.161,8.161,0,0,1,1.331-.332,7.277,7.277,0,0,1-.049-0.786,0.709,0.709,0,0,1,.488-0.673,2.039,2.039,0,0,0-.849-0.453h0Zm-12.645,16.886a7.83,7.83,0,0,1-.992-2.145l0.085-.623a16.331,16.331,0,0,0,2.7,4.248A3.217,3.217,0,0,1,206.486,132.074Zm37.5-15.378a4.577,4.577,0,0,0-1.012-1.961q-1.4-.468-1.374.7a2.042,2.042,0,0,1-.609,1.706,4.066,4.066,0,0,1-.58-0.064l-0.567-.106a55,55,0,0,0-1.274,5.374,36.147,36.147,0,0,1-1.4,5.317l-0.311.241a45.879,45.879,0,0,1-2.755-6.514,25.181,25.181,0,0,0-3.193-6.344,1.007,1.007,0,0,0-1.239.156,7.982,7.982,0,0,1-.941.85,0.978,0.978,0,0,0-1.254.248,1.7,1.7,0,0,1-1.026.7,32.9,32.9,0,0,0-1.749,6.762q-0.546,3.59-1.281,7.059-0.1.721-.284,1.515a3.455,3.455,0,0,0-.056,1.444,0.226,0.226,0,0,0,.325-0.085,0.375,0.375,0,0,1,.34-0.184,0.782,0.782,0,0,1,.368.878,2.277,2.277,0,0,0-.1.991q1.034,0.1.616,0.878a0.942,0.942,0,0,0,.036,1.218,2.51,2.51,0,0,0-.737,1.813,7.966,7.966,0,0,1-.255,1.982l0.411,0.014q0.425-1.062.765-2.209a16.449,16.449,0,0,0,.509-2.322,47.348,47.348,0,0,0,1.962-6.195q0.771-3.178,1.833-6.252c0.076-.2.151-0.432,0.227-0.7a0.479,0.479,0,0,1,.552-0.375q1.3,2.379,2.393,4.517,1.4,1.658,2.7,3.469a5.058,5.058,0,0,1,.934,3.951,1.566,1.566,0,0,1,.85.255,4.159,4.159,0,0,1,.22.765,1.032,1.032,0,0,1-.163.778q0.537,0.992.871,0.184a0.81,0.81,0,0,1,1.139-.524,1.206,1.206,0,0,0-.021-0.92q-0.191-.424-0.375-0.864a18.637,18.637,0,0,1,1.055-4.991q0.857-2.358,1.494-4.836a3.278,3.278,0,0,0,.212-0.821,1.1,1.1,0,0,1,.425-0.736q1.627,2.648,3.073,5.465t2.676,5.622a3.075,3.075,0,0,0,.786.6,0.675,0.675,0,0,1,.389.757,0.876,0.876,0,0,1,1.14.871,0.969,0.969,0,0,0,1.055,1.013,0.692,0.692,0,0,0-.276-0.928,0.482,0.482,0,0,1-.064-0.842,58.518,58.518,0,0,0-2.457-8.758q-1.565-4.271-3.334-8.518A11.786,11.786,0,0,1,243.983,116.7Zm52.574,0a4.577,4.577,0,0,0-1.012-1.961q-1.4-.468-1.374.7a2.042,2.042,0,0,1-.609,1.706,4.05,4.05,0,0,1-.58-0.064l-0.567-.106a54.713,54.713,0,0,0-1.274,5.374,36.147,36.147,0,0,1-1.4,5.317l-0.312.241a45.989,45.989,0,0,1-2.754-6.514,25.181,25.181,0,0,0-3.193-6.344,1.007,1.007,0,0,0-1.239.156,7.909,7.909,0,0,1-.942.85,0.977,0.977,0,0,0-1.253.248,1.7,1.7,0,0,1-1.026.7,32.9,32.9,0,0,0-1.749,6.762q-0.546,3.59-1.282,7.059-0.1.721-.283,1.515a3.438,3.438,0,0,0-.056,1.444,0.226,0.226,0,0,0,.325-0.085,0.375,0.375,0,0,1,.34-0.184,0.782,0.782,0,0,1,.368.878,2.277,2.277,0,0,0-.1.991q1.034,0.1.616,0.878a0.942,0.942,0,0,0,.035,1.218,2.509,2.509,0,0,0-.736,1.813,7.966,7.966,0,0,1-.255,1.982l0.411,0.014q0.425-1.062.765-2.209a16.449,16.449,0,0,0,.509-2.322,47.193,47.193,0,0,0,1.961-6.195q0.772-3.178,1.834-6.252c0.076-.2.151-0.432,0.227-0.7a0.479,0.479,0,0,1,.552-0.375q1.3,2.379,2.393,4.517,1.4,1.658,2.7,3.469a5.058,5.058,0,0,1,.934,3.951,1.566,1.566,0,0,1,.85.255,4.159,4.159,0,0,1,.219.765,1.023,1.023,0,0,1-.163.778q0.539,0.992.871,0.184a0.811,0.811,0,0,1,1.14-.524,1.211,1.211,0,0,0-.021-0.92c-0.127-.283-0.253-0.571-0.375-0.864a18.6,18.6,0,0,1,1.055-4.991q0.857-2.358,1.494-4.836a3.321,3.321,0,0,0,.212-0.821,1.1,1.1,0,0,1,.425-0.736q1.627,2.648,3.073,5.465t2.676,5.622a3.058,3.058,0,0,0,.786.6,0.675,0.675,0,0,1,.389.757,0.876,0.876,0,0,1,1.14.871,0.969,0.969,0,0,0,1.055,1.013,0.692,0.692,0,0,0-.276-0.928,0.482,0.482,0,0,1-.064-0.842,58.637,58.637,0,0,0-2.457-8.758q-1.565-4.271-3.334-8.518A11.7,11.7,0,0,1,296.557,116.7Zm16.229-1.451q-0.58-1.176-1.147-.418a1.017,1.017,0,0,1-1.331.418q-1.033-1.148-1.926-.156a2.869,2.869,0,0,1-1.94,1.062,31.313,31.313,0,0,0-.418,8.39q0.361,4.142.744,8.22c0.132,0.4.259,0.8,0.382,1.2a5.578,5.578,0,0,1,.227,1.232q0.963-.2.927,0.666a1.714,1.714,0,0,0,.446,1.345l-0.382.283a0.328,0.328,0,0,0,.014.283,0.505,0.505,0,0,1,.29.029,0.226,0.226,0,0,0,.262-0.071q0.426-.312.652,0.241a1.114,1.114,0,0,0,1.281-1.36,2.226,2.226,0,0,1,.517-1.968l0.949-16.383Zm19.535,0.007a0.605,0.605,0,0,0-.708-0.262,2.1,2.1,0,0,0-1.472.694,1.742,1.742,0,0,0-.255,1.118,6.843,6.843,0,0,0,.248,1.289,2.062,2.062,0,0,1,.021,1.2,2,2,0,0,1-.531.39c-0.184.09-.22,0.267-0.106,0.531a6.121,6.121,0,0,1,.693,4.432,7.116,7.116,0,0,0,.468,4.489l-0.34.113a49.654,49.654,0,0,1-2.967-4.531,25.789,25.789,0,0,1-2.159-4.758,4.059,4.059,0,0,0-1.175-1.522,3.625,3.625,0,0,1-1.119-1.48,0.841,0.841,0,0,0-.715-0.113q-0.418.1-.673,0.184a1.491,1.491,0,0,1-1.989.708,2.014,2.014,0,0,0-2.287.566q-0.369,3.47-.637,6.875t-0.822,6.96q-0.07,1.09-.148,2.195a3.5,3.5,0,0,0,.517,2.095,1.055,1.055,0,0,1,.219.885,0.439,0.439,0,0,0,.361.6,0.511,0.511,0,0,1,.467.46c0.029,0.25.255,0.352,0.68,0.305A41.081,41.081,0,0,1,319.62,132a39.763,39.763,0,0,0,1.7-6.577,0.486,0.486,0,0,0,.262-0.574q-0.05-.445.63-0.191,0.849,1.26,1.529,2.521t1.416,2.534a9.363,9.363,0,0,1,1.65,2.245,3.132,3.132,0,0,0,2.23,1.607,5.673,5.673,0,0,0,2.464,2.216A4.782,4.782,0,0,1,333.808,138l0.439,0.057q1.4-.114,1.175-0.878a1.828,1.828,0,0,1,.128-1.43,90.8,90.8,0,0,1-.425-9.346q0.029-4.687-.127-9.4a1.511,1.511,0,0,1,.085-0.778,0.715,0.715,0,0,0-.2-0.751,1.6,1.6,0,0,0-1.083-.042,5.518,5.518,0,0,1-.871.255A0.836,0.836,0,0,1,332.321,115.252Zm24.633-.064a90.975,90.975,0,0,0-14.1.382A5.817,5.817,0,0,1,340.2,116q-1.622-.056-1.381,1.444,1.84-.211,1.43.9a4.792,4.792,0,0,0-.368,1.862,11.294,11.294,0,0,1-.29,4.566,9.986,9.986,0,0,0-.177,4.553,6.112,6.112,0,0,1,.3.9,0.914,0.914,0,0,0,.637.673,1.344,1.344,0,0,0,.227-0.992,1.063,1.063,0,0,1,.326-0.948,5.109,5.109,0,0,1,.509,1.925,3.547,3.547,0,0,0,.765,1.94,10.217,10.217,0,0,0,3.675,3.158,17.968,17.968,0,0,0,4.906,1.671,5.167,5.167,0,0,1,1.968-.021,1.508,1.508,0,0,0,1.643-.673q-0.51-.693.333-0.849t0.5-.737a7.213,7.213,0,0,1-2.109-.333,15.034,15.034,0,0,0-2-.488,9.052,9.052,0,0,1-4.206-3.122,7.138,7.138,0,0,1-1.614-4.595q2.365-.383,4.758-0.581t4.772-.623q0.679-.82-0.4-0.892t-0.559-.991a13.332,13.332,0,0,0-4.312-.482,39.269,39.269,0,0,1-4.354-.014l-0.2-.212a5.524,5.524,0,0,0,.184-2.124,2.1,2.1,0,0,1,.878-1.912l8.722-1.4a2.884,2.884,0,0,0,1.275-.163,8.111,8.111,0,0,1,1.331-.332,7.52,7.52,0,0,1-.05-0.786,0.709,0.709,0,0,1,.489-0.673,2.049,2.049,0,0,0-.85-0.453h0Zm-12.645,16.886a7.824,7.824,0,0,1-.991-2.145l0.085-.623a16.305,16.305,0,0,0,2.7,4.248A3.222,3.222,0,0,1,344.309,132.074Zm31.671-15.626a4.4,4.4,0,0,0-3.7-1.218,16.541,16.541,0,0,0-8.878,5.622,12.388,12.388,0,0,0-2.4,5.36,9.152,9.152,0,0,0,.786,5.827,9.973,9.973,0,0,0,3.548,3.455,15.283,15.283,0,0,0,4.63,1.706,22.347,22.347,0,0,0,5.119.4,40.847,40.847,0,0,0,5.027-.474c0.009-.245.113-0.359,0.311-0.34s0.387,0.033.567,0.043a1.145,1.145,0,0,1,.87-0.489,0.654,0.654,0,0,0,.631-0.63,0.536,0.536,0,0,0-.581-0.269,1.693,1.693,0,0,1-.694-0.028,0.835,0.835,0,0,1-.283-0.383c-0.047-.141-0.1-0.283-0.156-0.424a0.736,0.736,0,0,0-.885-0.1,2.573,2.573,0,0,1-.842.34,48.59,48.59,0,0,1-5.282-.092,9.347,9.347,0,0,1-4.9-1.734,15.168,15.168,0,0,1-2.138-2.542,3.906,3.906,0,0,1-.552-3.137,12.907,12.907,0,0,1,4.312-4.892,18.219,18.219,0,0,1,5.841-2.655,5.714,5.714,0,0,1,2.131-.184,3.352,3.352,0,0,0,2.06-.467,1.106,1.106,0,0,0-.255-0.807q-0.283-.34-0.58-0.68A4.38,4.38,0,0,1,375.98,116.448ZM363.7,130.014a0.172,0.172,0,0,1-.135.212,0.655,0.655,0,0,1-.339-0.311l0.056-.85c0.179-.057.274,0.014,0.283,0.212a0.723,0.723,0,0,0,.17.468A0.43,0.43,0,0,0,363.7,130.014Zm30.75-13.559a23.644,23.644,0,0,0-8.914-2.485,9.947,9.947,0,0,1-2.01.121,1.25,1.25,0,0,0-1.374,1.111,2.293,2.293,0,0,0,2.414.616,1.8,1.8,0,0,1,2.216,1,25.869,25.869,0,0,0,.17,6.181,44.944,44.944,0,0,1,.5,6.125,9.963,9.963,0,0,0,.092,3.108,15.161,15.161,0,0,1,.248,3.165,3.491,3.491,0,0,1,.29,1.564,2.194,2.194,0,0,0,.46,1.466q0.906-.242,1.034.425a1.87,1.87,0,0,0,.453.991,1.371,1.371,0,0,0,.2-0.942,0.58,0.58,0,0,1,.482-0.7l0.127,0.142,0.637-5.282a0.618,0.618,0,0,0,.163-0.7q-0.12-.489.574-0.233a66.812,66.812,0,0,0,5.359,4.644q2.853,2.223,5.445,4.56l0.609,0.07q0.892,0.694,1.777,1.459a10.179,10.179,0,0,0,1.9,1.3q-1.359-1.657-2.478-3.307t-2.449-3.419a0.336,0.336,0,0,1,.375-0.255l0.545,0.028a12.066,12.066,0,0,0-2.9-4.064,37.1,37.1,0,0,1-3.49-3.767,28.462,28.462,0,0,1,3.795-2.655,3.967,3.967,0,0,0,2.152-3.632,1.306,1.306,0,0,0-.821-0.715,2.006,2.006,0,0,0-1.09-.049A16.388,16.388,0,0,0,394.446,116.455Zm1.331,8.914a11.985,11.985,0,0,1-3.065,1.43,1.853,1.853,0,0,1-.114-1.876,2.683,2.683,0,0,0,.156-1.961,6.332,6.332,0,0,0,.064-2.294,2.907,2.907,0,0,1,.4-2.082,9.817,9.817,0,0,1,2.677,1.643,6.114,6.114,0,0,1,1.8,2.535A3.9,3.9,0,0,1,395.777,125.369Zm22.3-12.7a0.758,0.758,0,0,0-.645.043c-0.273.113-.566,0.246-0.877,0.4a0.717,0.717,0,0,1-.751.029q-1.147-.128-1.253.226a1.531,1.531,0,0,0,.078.907,7.571,7.571,0,0,1,.283,1.154,0.888,0.888,0,0,1-.637.955,7.38,7.38,0,0,0-1.416,2.578,29.612,29.612,0,0,1-1.119,2.9,7.36,7.36,0,0,1-1.635,2.351,3.9,3.9,0,0,1-2.924.906,3.448,3.448,0,0,0-.978.588,1.761,1.761,0,0,0-.637.942,0.855,0.855,0,0,0,.63.835,1.75,1.75,0,0,0,1.1.014,1.3,1.3,0,0,0,.368.9q0.368,0.4.694,0.815a1.416,1.416,0,0,1-.007,1.083q-0.221.531-.4,1.055a7.386,7.386,0,0,1-.517,3.122,7.569,7.569,0,0,0-.545,3.066,10.241,10.241,0,0,1,.6-1.416,5.688,5.688,0,0,0,.51-1.473,0.355,0.355,0,0,1-.312-0.156,0.376,0.376,0,0,1,.085-0.325,0.461,0.461,0,0,1,.382.155,17.7,17.7,0,0,0,.97-2.025,9.943,9.943,0,0,1,1.084-1.982l0.17,0.212q-0.255.822-.439,1.671a6.836,6.836,0,0,1-.567,1.615,1.164,1.164,0,0,0-.226,1.451,1.209,1.209,0,0,1-.227,1.48,1.49,1.49,0,0,1,.581.1l1.416-3.512a19.259,19.259,0,0,0,1.076-2.8,5.873,5.873,0,0,1,1.444-2.492,13.7,13.7,0,0,1,2.627-.573q1.366-.163,2.768-0.375l0.567,0.5a8.423,8.423,0,0,0,.587,2.011,10.772,10.772,0,0,1,.645,2.011,6.4,6.4,0,0,1,1.585,2.931l0.354-.368a2.146,2.146,0,0,0-.332-1.289,1.58,1.58,0,0,1-.078-1.43q1.854-.567,1.076-2.025a3.805,3.805,0,0,1-.5-2.676,0.813,0.813,0,0,1,.9-0.489,2.837,2.837,0,0,0,1.182-.092,4.26,4.26,0,0,1,1.834-.234,2.985,2.985,0,0,0,1.819-.446q0.029-.48.036-1a0.894,0.894,0,0,0-.5-0.814,5.062,5.062,0,0,1-.772.12,1.774,1.774,0,0,0-.772.248,3.663,3.663,0,0,0-2.364-.694,4.382,4.382,0,0,1-2.407-.552q-0.793-2.309-1.424-4.666a13.648,13.648,0,0,0-2.117-4.439A1.078,1.078,0,0,0,418.074,112.667Zm-1.721,10.649a2.034,2.034,0,0,1-1.331-.312,5.511,5.511,0,0,0,.6-1.755,3.652,3.652,0,0,1,.75-1.7,3.613,3.613,0,0,1,.843,1.593q0.248,0.957.432,1.848A3.962,3.962,0,0,1,416.353,123.316ZM409.2,137.781a0.386,0.386,0,0,0-.325-0.588,14.39,14.39,0,0,0-.715,1.975,10.366,10.366,0,0,0-.361,2.216l0.212-.24a1.545,1.545,0,0,1,.2-0.482,0.309,0.309,0,0,0-.141-0.439,0.739,0.739,0,0,0,.481-0.821,0.738,0.738,0,0,1,.5-0.821A1.527,1.527,0,0,1,409.2,137.781Zm39.5-22.955a13.739,13.739,0,0,0-3.647-.381,44.836,44.836,0,0,1-6.372.227,9.869,9.869,0,0,0-5.8,1.516,1.53,1.53,0,0,0-.125,1.092,0.734,0.734,0,0,0,.887.534,0.642,0.642,0,0,0,.307.945,3.427,3.427,0,0,1,.952.535,1.948,1.948,0,0,0-.146,1.457q0.206,0.813.315,1.509a1.485,1.485,0,0,1-.191,1.121,1.9,1.9,0,0,1-1.662.293,1.063,1.063,0,0,0-.762,1.23,1.388,1.388,0,0,0,1.113.41q0.688-.028,1.216-0.087a13.369,13.369,0,0,1,1.106,6.225,11.766,11.766,0,0,0,1.355,6.24q0.454,0.074.418-.307t0.446-.4a0.818,0.818,0,0,1,.374.645,0.48,0.48,0,0,0,.535.439,20.635,20.635,0,0,0,.227-3.64,27.534,27.534,0,0,1,.183-3.83,0.51,0.51,0,0,1,.366.542,0.828,0.828,0,0,0,.234.659,0.323,0.323,0,0,1,.161-0.374,1.164,1.164,0,0,0,.323-0.242,8.291,8.291,0,0,1-.008-3.01,9.115,9.115,0,0,0,.008-3.113,2.6,2.6,0,0,1,1.823-.629q1.092,0.013,2.132-.059a1.377,1.377,0,0,1,1.326-.234,0.818,0.818,0,0,0,1.091-.66,4.887,4.887,0,0,0-3.018-.578,12.99,12.99,0,0,1-3.325-.11,5.544,5.544,0,0,1-.256-2.014,19.871,19.871,0,0,0-.008-2.088l0.337-.322,6.87-.791a3.509,3.509,0,0,1,2.579-.593,3.332,3.332,0,0,0,2.534-.608,0.477,0.477,0,0,0-.052-0.571q-0.211-.234-0.417-0.513A15.683,15.683,0,0,1,448.7,114.826Zm27.753-.263q-1.113.249-2.256,0.52a8.416,8.416,0,0,1-2.27.227,0.422,0.422,0,0,1-.235-0.33,1.512,1.512,0,0,0-.073-0.374,11.275,11.275,0,0,0-1.465.242q-0.717.169-1.391,0.344a30.12,30.12,0,0,0-4.263.645q-2.066.469-4.145,0.82a4.3,4.3,0,0,1-2.249.593,2.487,2.487,0,0,0-2.014.945q-0.191.381,0.095,0.5a0.481,0.481,0,0,1,.3.469l-1.142.85q-0.337,1.084.754,1.025a0.809,0.809,0,0,1,.974,1.026,2.122,2.122,0,0,0,1.641.219,12.178,12.178,0,0,0,1.655-.527,5.215,5.215,0,0,0,2.227-.659,3.568,3.568,0,0,1,2.226-.44q0.117,2.858-.022,5.852a49.45,49.45,0,0,0,.066,5.852,5.353,5.353,0,0,0,.235,1.194,1.677,1.677,0,0,1-.074,1.209,3.752,3.752,0,0,1,.323,1.75,2.924,2.924,0,0,0,.38,1.663l0.293-.44a0.143,0.143,0,0,0,.162.11,0.287,0.287,0,0,1,.19.022l0.234-1.963a5.473,5.473,0,0,1,.411-0.8,0.424,0.424,0,0,1,.688-0.169,67.036,67.036,0,0,0,1.545-7.844q0.55-4.02,1.136-8.049a0.5,0.5,0,0,1,.4-0.4,1.874,1.874,0,0,0,.563-0.212q1.715-.424,3.421-0.894a28.2,28.2,0,0,0,3.332-1.142,2.074,2.074,0,0,1,1.077-.579,7.4,7.4,0,0,0,1.165-.315q-0.19-.658-0.645-0.286a0.782,0.782,0,0,1-.864.183,5.393,5.393,0,0,1-3.032.367,0.449,0.449,0,0,1,.395-0.484,0.521,0.521,0,0,0,.44-0.5Z" transform="translate(-0.5 -3.5) scale(3)"/>
  </g>
</svg>
